<mxfile>
    <diagram id="h3xLkAqzNFig_keMwtpp" name="Page-1">
        <mxGraphModel dx="187" dy="146" grid="1" gridSize="10" guides="1" tooltips="1" connect="1" arrows="1" fold="1" page="1" pageScale="1" pageWidth="850" pageHeight="1100" math="0" shadow="0">
            <root>
                <mxCell id="Uhjl_tTcvrPX5doU-7aw-0"/>
                <mxCell id="Uhjl_tTcvrPX5doU-7aw-1" parent="Uhjl_tTcvrPX5doU-7aw-0"/>
                <mxCell id="Sxah1bu2ukm-b7G7eMJ2-1" value="User node" style="shape=umlFrame;whiteSpace=wrap;html=1;pointerEvents=0;fillColor=none;gradientColor=none;width=80;height=30;" parent="Uhjl_tTcvrPX5doU-7aw-1" vertex="1">
                    <mxGeometry x="10" y="10" width="770" height="110" as="geometry"/>
                </mxCell>
                <mxCell id="cgHieyDRWAgkGrHZ09FN-108" value="Docker compose - Server deployment" style="shape=umlFrame;whiteSpace=wrap;html=1;pointerEvents=0;fillColor=none;gradientColor=none;width=230;height=30;" parent="Uhjl_tTcvrPX5doU-7aw-1" vertex="1">
                    <mxGeometry x="10" y="225" width="830" height="620" as="geometry"/>
                </mxCell>
                <mxCell id="cgHieyDRWAgkGrHZ09FN-1" value="«Container Service»&lt;b&gt; Backend&lt;/b&gt;" style="html=1;dropTarget=0;" parent="Uhjl_tTcvrPX5doU-7aw-1" vertex="1">
                    <mxGeometry x="70" y="315" width="280" height="40" as="geometry"/>
                </mxCell>
                <mxCell id="cgHieyDRWAgkGrHZ09FN-2" value="" style="shape=module;jettyWidth=8;jettyHeight=4;" parent="cgHieyDRWAgkGrHZ09FN-1" vertex="1">
                    <mxGeometry x="1" width="20" height="20" relative="1" as="geometry">
                        <mxPoint x="-27" y="7" as="offset"/>
                    </mxGeometry>
                </mxCell>
                <mxCell id="cgHieyDRWAgkGrHZ09FN-3" value="" style="rounded=0;whiteSpace=wrap;html=1;" parent="Uhjl_tTcvrPX5doU-7aw-1" vertex="1">
                    <mxGeometry x="70" y="355" width="280" height="120" as="geometry"/>
                </mxCell>
                <mxCell id="cgHieyDRWAgkGrHZ09FN-4" value="«Container Service» &lt;b&gt;Frontend&lt;/b&gt;" style="html=1;dropTarget=0;" parent="Uhjl_tTcvrPX5doU-7aw-1" vertex="1">
                    <mxGeometry x="510" y="315" width="280" height="40" as="geometry"/>
                </mxCell>
                <mxCell id="cgHieyDRWAgkGrHZ09FN-5" value="" style="shape=module;jettyWidth=8;jettyHeight=4;" parent="cgHieyDRWAgkGrHZ09FN-4" vertex="1">
                    <mxGeometry x="1" width="20" height="20" relative="1" as="geometry">
                        <mxPoint x="-27" y="7" as="offset"/>
                    </mxGeometry>
                </mxCell>
                <mxCell id="cgHieyDRWAgkGrHZ09FN-6" value="«Container Service»&lt;b&gt; Reverse Proxy&lt;/b&gt;" style="html=1;dropTarget=0;" parent="Uhjl_tTcvrPX5doU-7aw-1" vertex="1">
                    <mxGeometry x="510" y="515" width="280" height="40" as="geometry"/>
                </mxCell>
                <mxCell id="cgHieyDRWAgkGrHZ09FN-7" value="" style="shape=module;jettyWidth=8;jettyHeight=4;" parent="cgHieyDRWAgkGrHZ09FN-6" vertex="1">
                    <mxGeometry x="1" width="20" height="20" relative="1" as="geometry">
                        <mxPoint x="-27" y="7" as="offset"/>
                    </mxGeometry>
                </mxCell>
                <mxCell id="cgHieyDRWAgkGrHZ09FN-10" value="«Container Service»&lt;b&gt; Database&lt;/b&gt;" style="html=1;dropTarget=0;" parent="Uhjl_tTcvrPX5doU-7aw-1" vertex="1">
                    <mxGeometry x="70" y="515" width="280" height="40" as="geometry"/>
                </mxCell>
                <mxCell id="cgHieyDRWAgkGrHZ09FN-11" value="" style="shape=module;jettyWidth=8;jettyHeight=4;" parent="cgHieyDRWAgkGrHZ09FN-10" vertex="1">
                    <mxGeometry x="1" width="20" height="20" relative="1" as="geometry">
                        <mxPoint x="-27" y="7" as="offset"/>
                    </mxGeometry>
                </mxCell>
                <mxCell id="cgHieyDRWAgkGrHZ09FN-12" value="«Container Service»&lt;b&gt; Certificate&lt;/b&gt;" style="html=1;dropTarget=0;" parent="Uhjl_tTcvrPX5doU-7aw-1" vertex="1">
                    <mxGeometry x="510" y="715" width="280" height="40" as="geometry"/>
                </mxCell>
                <mxCell id="cgHieyDRWAgkGrHZ09FN-13" value="" style="shape=module;jettyWidth=8;jettyHeight=4;" parent="cgHieyDRWAgkGrHZ09FN-12" vertex="1">
                    <mxGeometry x="1" width="20" height="20" relative="1" as="geometry">
                        <mxPoint x="-27" y="7" as="offset"/>
                    </mxGeometry>
                </mxCell>
                <mxCell id="cgHieyDRWAgkGrHZ09FN-18" value="&lt;p style=&quot;margin: 0px ; margin-top: 6px ; text-align: center&quot;&gt;&lt;b&gt;RESTful API&lt;br&gt;&lt;/b&gt;&lt;/p&gt;&lt;hr&gt;&lt;p style=&quot;margin: 0px ; margin-left: 8px&quot;&gt;+ Benchmarks: API&lt;br&gt;+ ...: API&lt;br&gt;&lt;/p&gt;" style="align=left;overflow=fill;html=1;dropTarget=0;" parent="Uhjl_tTcvrPX5doU-7aw-1" vertex="1">
                    <mxGeometry x="120" y="380" width="130" height="70" as="geometry"/>
                </mxCell>
                <mxCell id="cgHieyDRWAgkGrHZ09FN-19" value="" style="shape=component;jettyWidth=8;jettyHeight=4;" parent="cgHieyDRWAgkGrHZ09FN-18" vertex="1">
                    <mxGeometry x="1" width="20" height="20" relative="1" as="geometry">
                        <mxPoint x="-24" y="4" as="offset"/>
                    </mxGeometry>
                </mxCell>
                <mxCell id="cgHieyDRWAgkGrHZ09FN-20" value="" style="endArrow=none;html=1;exitX=1;exitY=0.5;exitDx=0;exitDy=0;entryX=1;entryY=0.5;entryDx=0;entryDy=0;entryPerimeter=0;startArrow=box;startFill=0;" parent="Uhjl_tTcvrPX5doU-7aw-1" source="cgHieyDRWAgkGrHZ09FN-18" target="cgHieyDRWAgkGrHZ09FN-21" edge="1">
                    <mxGeometry width="50" height="50" relative="1" as="geometry">
                        <mxPoint x="35" y="590" as="sourcePoint"/>
                        <mxPoint x="85" y="540" as="targetPoint"/>
                    </mxGeometry>
                </mxCell>
                <mxCell id="cgHieyDRWAgkGrHZ09FN-21" value="" style="shape=requiredInterface;html=1;verticalLabelPosition=bottom;rotation=-180;" parent="Uhjl_tTcvrPX5doU-7aw-1" vertex="1">
                    <mxGeometry x="275" y="405" width="10" height="20" as="geometry"/>
                </mxCell>
                <mxCell id="cgHieyDRWAgkGrHZ09FN-24" value="" style="rounded=0;whiteSpace=wrap;html=1;" parent="Uhjl_tTcvrPX5doU-7aw-1" vertex="1">
                    <mxGeometry x="70" y="555" width="280" height="170" as="geometry"/>
                </mxCell>
                <mxCell id="cgHieyDRWAgkGrHZ09FN-30" value="«Process»&lt;br&gt;&lt;div&gt;&lt;b&gt;Backup&lt;/b&gt;&lt;/div&gt;" style="html=1;dropTarget=0;" parent="Uhjl_tTcvrPX5doU-7aw-1" vertex="1">
                    <mxGeometry x="200" y="648" width="130" height="50" as="geometry"/>
                </mxCell>
                <mxCell id="cgHieyDRWAgkGrHZ09FN-31" value="" style="shape=module;jettyWidth=8;jettyHeight=4;" parent="cgHieyDRWAgkGrHZ09FN-30" vertex="1">
                    <mxGeometry x="1" width="20" height="20" relative="1" as="geometry">
                        <mxPoint x="-27" y="7" as="offset"/>
                    </mxGeometry>
                </mxCell>
                <mxCell id="cgHieyDRWAgkGrHZ09FN-37" value="&lt;p style=&quot;margin: 0px ; margin-top: 6px ; text-align: center&quot;&gt;&lt;b&gt;Database&lt;br&gt;&lt;/b&gt;&lt;/p&gt;&lt;hr&gt;&lt;p style=&quot;margin: 0px ; margin-left: 8px&quot;&gt;+ Benchmark: Table&lt;br&gt;+ ...: Table&lt;br&gt;&lt;/p&gt;" style="align=left;overflow=fill;html=1;dropTarget=0;" parent="Uhjl_tTcvrPX5doU-7aw-1" vertex="1">
                    <mxGeometry x="200" y="563" width="130" height="70" as="geometry"/>
                </mxCell>
                <mxCell id="cgHieyDRWAgkGrHZ09FN-38" value="" style="shape=component;jettyWidth=8;jettyHeight=4;" parent="cgHieyDRWAgkGrHZ09FN-37" vertex="1">
                    <mxGeometry x="1" width="20" height="20" relative="1" as="geometry">
                        <mxPoint x="-24" y="4" as="offset"/>
                    </mxGeometry>
                </mxCell>
                <mxCell id="cgHieyDRWAgkGrHZ09FN-49" style="edgeStyle=elbowEdgeStyle;rounded=0;orthogonalLoop=1;jettySize=auto;elbow=vertical;html=1;entryX=0;entryY=0.5;entryDx=0;entryDy=0;startArrow=none;startFill=0;endArrow=box;endFill=0;" parent="Uhjl_tTcvrPX5doU-7aw-1" source="cgHieyDRWAgkGrHZ09FN-39" target="cgHieyDRWAgkGrHZ09FN-37" edge="1">
                    <mxGeometry relative="1" as="geometry"/>
                </mxCell>
                <mxCell id="cgHieyDRWAgkGrHZ09FN-39" value="" style="shape=requiredInterface;html=1;verticalLabelPosition=bottom;pointerEvents=0;fillColor=none;gradientColor=none;" parent="Uhjl_tTcvrPX5doU-7aw-1" vertex="1">
                    <mxGeometry x="170" y="588" width="10" height="20" as="geometry"/>
                </mxCell>
                <mxCell id="cgHieyDRWAgkGrHZ09FN-46" value="Use" style="endArrow=open;endSize=12;dashed=1;html=1;entryX=0;entryY=0.5;entryDx=0;entryDy=0;entryPerimeter=0;rounded=1;edgeStyle=orthogonalEdgeStyle;exitX=0;exitY=0.5;exitDx=0;exitDy=0;" parent="Uhjl_tTcvrPX5doU-7aw-1" source="cgHieyDRWAgkGrHZ09FN-100" target="cgHieyDRWAgkGrHZ09FN-39" edge="1">
                    <mxGeometry x="0.3846" y="13" width="160" relative="1" as="geometry">
                        <mxPoint x="160" y="675" as="sourcePoint"/>
                        <mxPoint x="210" y="563" as="targetPoint"/>
                        <Array as="points">
                            <mxPoint x="110" y="673"/>
                            <mxPoint x="110" y="598"/>
                        </Array>
                        <mxPoint as="offset"/>
                    </mxGeometry>
                </mxCell>
                <mxCell id="cgHieyDRWAgkGrHZ09FN-59" value="" style="rounded=0;whiteSpace=wrap;html=1;" parent="Uhjl_tTcvrPX5doU-7aw-1" vertex="1">
                    <mxGeometry x="510" y="355" width="280" height="120" as="geometry"/>
                </mxCell>
                <mxCell id="cgHieyDRWAgkGrHZ09FN-61" value="Network backend" style="endArrow=none;html=1;entryX=0;entryY=0.5;entryDx=0;entryDy=0;exitX=0;exitY=0.5;exitDx=0;exitDy=0;edgeStyle=orthogonalEdgeStyle;rounded=0;strokeWidth=3;" parent="Uhjl_tTcvrPX5doU-7aw-1" source="cgHieyDRWAgkGrHZ09FN-10" target="cgHieyDRWAgkGrHZ09FN-1" edge="1">
                    <mxGeometry x="-0.5" y="-50" width="50" height="50" relative="1" as="geometry">
                        <mxPoint x="450" y="635" as="sourcePoint"/>
                        <mxPoint x="500" y="585" as="targetPoint"/>
                        <Array as="points">
                            <mxPoint x="50" y="535"/>
                            <mxPoint x="50" y="335"/>
                        </Array>
                        <mxPoint as="offset"/>
                    </mxGeometry>
                </mxCell>
                <mxCell id="cgHieyDRWAgkGrHZ09FN-62" value="Use" style="endArrow=open;endSize=12;dashed=1;html=1;rounded=1;edgeStyle=orthogonalEdgeStyle;exitX=0;exitY=0.5;exitDx=0;exitDy=0;" parent="Uhjl_tTcvrPX5doU-7aw-1" source="cgHieyDRWAgkGrHZ09FN-103" target="cgHieyDRWAgkGrHZ09FN-39" edge="1">
                    <mxGeometry x="0.6648" y="13" width="160" relative="1" as="geometry">
                        <mxPoint y="415" as="sourcePoint"/>
                        <mxPoint x="70" y="605" as="targetPoint"/>
                        <Array as="points">
                            <mxPoint x="40" y="415"/>
                            <mxPoint x="40" y="598"/>
                        </Array>
                        <mxPoint as="offset"/>
                    </mxGeometry>
                </mxCell>
                <mxCell id="cgHieyDRWAgkGrHZ09FN-63" value="&lt;p style=&quot;margin: 0px ; margin-top: 6px ; text-align: center&quot;&gt;&lt;b&gt;Routes&lt;br&gt;&lt;/b&gt;&lt;/p&gt;&lt;hr&gt;&lt;p style=&quot;margin: 0px ; margin-left: 8px&quot;&gt;+ Home: View&lt;br&gt;+ ...: View&lt;br&gt;&lt;/p&gt;" style="align=left;overflow=fill;html=1;dropTarget=0;" parent="Uhjl_tTcvrPX5doU-7aw-1" vertex="1">
                    <mxGeometry x="567.5" y="380" width="130" height="70" as="geometry"/>
                </mxCell>
                <mxCell id="cgHieyDRWAgkGrHZ09FN-64" value="" style="shape=component;jettyWidth=8;jettyHeight=4;" parent="cgHieyDRWAgkGrHZ09FN-63" vertex="1">
                    <mxGeometry x="1" width="20" height="20" relative="1" as="geometry">
                        <mxPoint x="-24" y="4" as="offset"/>
                    </mxGeometry>
                </mxCell>
                <mxCell id="cgHieyDRWAgkGrHZ09FN-65" value="" style="rounded=0;whiteSpace=wrap;html=1;" parent="Uhjl_tTcvrPX5doU-7aw-1" vertex="1">
                    <mxGeometry x="510" y="555" width="280" height="120" as="geometry"/>
                </mxCell>
                <mxCell id="cgHieyDRWAgkGrHZ09FN-66" value="&lt;p style=&quot;margin: 0px ; margin-top: 6px ; text-align: center&quot;&gt;&lt;b&gt;Web Server&lt;br&gt;&lt;/b&gt;&lt;/p&gt;&lt;hr&gt;&lt;p style=&quot;margin: 0px ; margin-left: 8px&quot;&gt;+ HTTPS: Protocol&lt;br&gt;+ ...: Protocol&lt;br&gt;&lt;/p&gt;" style="align=left;overflow=fill;html=1;dropTarget=0;" parent="Uhjl_tTcvrPX5doU-7aw-1" vertex="1">
                    <mxGeometry x="571" y="567" width="130" height="70" as="geometry"/>
                </mxCell>
                <mxCell id="cgHieyDRWAgkGrHZ09FN-67" value="" style="shape=component;jettyWidth=8;jettyHeight=4;" parent="cgHieyDRWAgkGrHZ09FN-66" vertex="1">
                    <mxGeometry x="1" width="20" height="20" relative="1" as="geometry">
                        <mxPoint x="-24" y="4" as="offset"/>
                    </mxGeometry>
                </mxCell>
                <mxCell id="cgHieyDRWAgkGrHZ09FN-68" value="" style="endArrow=none;html=1;exitX=1;exitY=0.5;exitDx=0;exitDy=0;entryX=1;entryY=0.5;entryDx=0;entryDy=0;entryPerimeter=0;startArrow=box;startFill=0;edgeStyle=orthogonalEdgeStyle;rounded=0;" parent="Uhjl_tTcvrPX5doU-7aw-1" source="cgHieyDRWAgkGrHZ09FN-66" target="cgHieyDRWAgkGrHZ09FN-69" edge="1">
                    <mxGeometry width="50" height="50" relative="1" as="geometry">
                        <mxPoint x="680" y="608" as="sourcePoint"/>
                        <mxPoint x="515" y="733" as="targetPoint"/>
                    </mxGeometry>
                </mxCell>
                <mxCell id="cgHieyDRWAgkGrHZ09FN-69" value="" style="shape=requiredInterface;html=1;verticalLabelPosition=bottom;rotation=-180;" parent="Uhjl_tTcvrPX5doU-7aw-1" vertex="1">
                    <mxGeometry x="730" y="592" width="10" height="20" as="geometry"/>
                </mxCell>
                <mxCell id="cgHieyDRWAgkGrHZ09FN-70" value="443" style="endArrow=box;html=1;exitX=0;exitY=0.5;exitDx=0;exitDy=0;exitPerimeter=0;endFill=0;" parent="Uhjl_tTcvrPX5doU-7aw-1" source="cgHieyDRWAgkGrHZ09FN-69" edge="1">
                    <mxGeometry width="50" height="50" relative="1" as="geometry">
                        <mxPoint x="790" y="613" as="sourcePoint"/>
                        <mxPoint x="790" y="602" as="targetPoint"/>
                    </mxGeometry>
                </mxCell>
                <mxCell id="cgHieyDRWAgkGrHZ09FN-81" value="" style="endArrow=none;html=1;entryX=1;entryY=0.5;entryDx=0;entryDy=0;entryPerimeter=0;startArrow=box;startFill=0;edgeStyle=orthogonalEdgeStyle;rounded=0;exitX=1;exitY=0.816;exitDx=0;exitDy=0;exitPerimeter=0;" parent="Uhjl_tTcvrPX5doU-7aw-1" edge="1">
                    <mxGeometry width="50" height="50" relative="1" as="geometry">
                        <mxPoint x="700" y="624.12" as="sourcePoint"/>
                        <mxPoint x="730" y="624" as="targetPoint"/>
                        <Array as="points">
                            <mxPoint x="720" y="624"/>
                        </Array>
                    </mxGeometry>
                </mxCell>
                <mxCell id="cgHieyDRWAgkGrHZ09FN-82" value="" style="shape=requiredInterface;html=1;verticalLabelPosition=bottom;rotation=-180;" parent="Uhjl_tTcvrPX5doU-7aw-1" vertex="1">
                    <mxGeometry x="730" y="614" width="10" height="20" as="geometry"/>
                </mxCell>
                <mxCell id="cgHieyDRWAgkGrHZ09FN-83" value="80" style="endArrow=box;html=1;exitX=0;exitY=0.5;exitDx=0;exitDy=0;exitPerimeter=0;endFill=0;entryX=1;entryY=0.539;entryDx=0;entryDy=0;entryPerimeter=0;" parent="Uhjl_tTcvrPX5doU-7aw-1" source="cgHieyDRWAgkGrHZ09FN-82" edge="1">
                    <mxGeometry width="50" height="50" relative="1" as="geometry">
                        <mxPoint x="790" y="662" as="sourcePoint"/>
                        <mxPoint x="790" y="623.68" as="targetPoint"/>
                    </mxGeometry>
                </mxCell>
                <mxCell id="cgHieyDRWAgkGrHZ09FN-86" value="Network frontend" style="endArrow=none;html=1;entryX=0;entryY=0.5;entryDx=0;entryDy=0;exitX=0;exitY=0.25;exitDx=0;exitDy=0;edgeStyle=orthogonalEdgeStyle;rounded=0;strokeWidth=3;" parent="Uhjl_tTcvrPX5doU-7aw-1" source="cgHieyDRWAgkGrHZ09FN-6" target="cgHieyDRWAgkGrHZ09FN-4" edge="1">
                    <mxGeometry x="0.76" y="51" width="50" height="50" relative="1" as="geometry">
                        <mxPoint x="500" y="545" as="sourcePoint"/>
                        <mxPoint x="500" y="345" as="targetPoint"/>
                        <Array as="points">
                            <mxPoint x="480" y="525"/>
                            <mxPoint x="480" y="335"/>
                        </Array>
                        <mxPoint x="-50" y="41" as="offset"/>
                    </mxGeometry>
                </mxCell>
                <mxCell id="cgHieyDRWAgkGrHZ09FN-87" value="Network frontend" style="endArrow=none;html=1;exitX=1;exitY=0.5;exitDx=0;exitDy=0;edgeStyle=orthogonalEdgeStyle;rounded=0;strokeWidth=3;" parent="Uhjl_tTcvrPX5doU-7aw-1" source="cgHieyDRWAgkGrHZ09FN-1" edge="1">
                    <mxGeometry y="10" width="50" height="50" relative="1" as="geometry">
                        <mxPoint x="520" y="535" as="sourcePoint"/>
                        <mxPoint x="510" y="335" as="targetPoint"/>
                        <Array as="points">
                            <mxPoint x="500" y="335"/>
                            <mxPoint x="500" y="335"/>
                        </Array>
                        <mxPoint as="offset"/>
                    </mxGeometry>
                </mxCell>
                <mxCell id="cgHieyDRWAgkGrHZ09FN-88" value="Volume certificate" style="endArrow=none;html=1;entryX=0;entryY=0.75;entryDx=0;entryDy=0;exitX=0;exitY=0.5;exitDx=0;exitDy=0;edgeStyle=orthogonalEdgeStyle;rounded=0;strokeWidth=3;dashed=1;" parent="Uhjl_tTcvrPX5doU-7aw-1" source="cgHieyDRWAgkGrHZ09FN-12" target="cgHieyDRWAgkGrHZ09FN-6" edge="1">
                    <mxGeometry x="-1" y="-45" width="50" height="50" relative="1" as="geometry">
                        <mxPoint x="500" y="739.98" as="sourcePoint"/>
                        <mxPoint x="500" y="539.98" as="targetPoint"/>
                        <Array as="points">
                            <mxPoint x="480" y="735"/>
                            <mxPoint x="480" y="545"/>
                        </Array>
                        <mxPoint x="20" y="5" as="offset"/>
                    </mxGeometry>
                </mxCell>
                <mxCell id="cgHieyDRWAgkGrHZ09FN-100" value="" style="ellipse;whiteSpace=wrap;html=1;aspect=fixed;pointerEvents=0;fillColor=none;gradientColor=none;" parent="Uhjl_tTcvrPX5doU-7aw-1" vertex="1">
                    <mxGeometry x="170" y="668" width="10" height="10" as="geometry"/>
                </mxCell>
                <mxCell id="cgHieyDRWAgkGrHZ09FN-101" value="" style="endArrow=box;html=1;targetPerimeterSpacing=0;strokeWidth=1;exitX=1;exitY=0.5;exitDx=0;exitDy=0;entryX=0;entryY=0.5;entryDx=0;entryDy=0;endFill=0;" parent="Uhjl_tTcvrPX5doU-7aw-1" source="cgHieyDRWAgkGrHZ09FN-100" target="cgHieyDRWAgkGrHZ09FN-30" edge="1">
                    <mxGeometry width="50" height="50" relative="1" as="geometry">
                        <mxPoint x="300" y="755" as="sourcePoint"/>
                        <mxPoint x="350" y="705" as="targetPoint"/>
                    </mxGeometry>
                </mxCell>
                <mxCell id="cgHieyDRWAgkGrHZ09FN-102" value="" style="endArrow=box;html=1;targetPerimeterSpacing=0;strokeWidth=1;entryX=0;entryY=0.5;entryDx=0;entryDy=0;endFill=0;exitX=1;exitY=0.5;exitDx=0;exitDy=0;" parent="Uhjl_tTcvrPX5doU-7aw-1" source="cgHieyDRWAgkGrHZ09FN-103" target="cgHieyDRWAgkGrHZ09FN-18" edge="1">
                    <mxGeometry width="50" height="50" relative="1" as="geometry">
                        <mxPoint x="10" y="385" as="sourcePoint"/>
                        <mxPoint x="210" y="683" as="targetPoint"/>
                    </mxGeometry>
                </mxCell>
                <mxCell id="cgHieyDRWAgkGrHZ09FN-103" value="" style="ellipse;whiteSpace=wrap;html=1;aspect=fixed;pointerEvents=0;fillColor=none;gradientColor=none;" parent="Uhjl_tTcvrPX5doU-7aw-1" vertex="1">
                    <mxGeometry x="85" y="410" width="10" height="10" as="geometry"/>
                </mxCell>
                <mxCell id="cgHieyDRWAgkGrHZ09FN-104" value="«Storage»&lt;b&gt; Data&lt;/b&gt;" style="html=1;dropTarget=0;" parent="Uhjl_tTcvrPX5doU-7aw-1" vertex="1">
                    <mxGeometry x="135" y="765" width="260" height="40" as="geometry"/>
                </mxCell>
                <mxCell id="cgHieyDRWAgkGrHZ09FN-105" value="" style="shape=module;jettyWidth=8;jettyHeight=4;" parent="cgHieyDRWAgkGrHZ09FN-104" vertex="1">
                    <mxGeometry x="1" width="20" height="20" relative="1" as="geometry">
                        <mxPoint x="-27" y="7" as="offset"/>
                    </mxGeometry>
                </mxCell>
                <mxCell id="cgHieyDRWAgkGrHZ09FN-106" value="Volume certificate" style="endArrow=none;html=1;edgeStyle=orthogonalEdgeStyle;rounded=0;strokeWidth=3;dashed=1;exitX=1;exitY=0.75;exitDx=0;exitDy=0;" parent="Uhjl_tTcvrPX5doU-7aw-1" source="cgHieyDRWAgkGrHZ09FN-104" edge="1">
                    <mxGeometry x="1" y="45" width="50" height="50" relative="1" as="geometry">
                        <mxPoint x="480" y="795" as="sourcePoint"/>
                        <mxPoint x="510" y="735" as="targetPoint"/>
                        <Array as="points">
                            <mxPoint x="470" y="795"/>
                            <mxPoint x="470" y="735"/>
                        </Array>
                        <mxPoint x="20" y="5" as="offset"/>
                    </mxGeometry>
                </mxCell>
                <mxCell id="cgHieyDRWAgkGrHZ09FN-107" value="Volume database" style="endArrow=none;html=1;entryX=1;entryY=0.5;entryDx=0;entryDy=0;exitX=1;exitY=0.25;exitDx=0;exitDy=0;edgeStyle=orthogonalEdgeStyle;rounded=0;strokeWidth=3;dashed=1;" parent="Uhjl_tTcvrPX5doU-7aw-1" source="cgHieyDRWAgkGrHZ09FN-104" target="cgHieyDRWAgkGrHZ09FN-10" edge="1">
                    <mxGeometry x="-1" y="39" width="50" height="50" relative="1" as="geometry">
                        <mxPoint x="520" y="745" as="sourcePoint"/>
                        <mxPoint x="520" y="555" as="targetPoint"/>
                        <Array as="points">
                            <mxPoint x="420" y="775"/>
                            <mxPoint x="420" y="535"/>
                        </Array>
                        <mxPoint x="-25" y="9" as="offset"/>
                    </mxGeometry>
                </mxCell>
                <mxCell id="cgHieyDRWAgkGrHZ09FN-109" value="" style="endArrow=box;html=1;targetPerimeterSpacing=0;strokeWidth=1;entryX=0;entryY=0.5;entryDx=0;entryDy=0;endFill=0;exitX=1;exitY=0.5;exitDx=0;exitDy=0;" parent="Uhjl_tTcvrPX5doU-7aw-1" source="cgHieyDRWAgkGrHZ09FN-110" target="cgHieyDRWAgkGrHZ09FN-63" edge="1">
                    <mxGeometry width="50" height="50" relative="1" as="geometry">
                        <mxPoint x="457.5" y="390" as="sourcePoint"/>
                        <mxPoint x="567.5" y="420" as="targetPoint"/>
                    </mxGeometry>
                </mxCell>
                <mxCell id="cgHieyDRWAgkGrHZ09FN-110" value="" style="ellipse;whiteSpace=wrap;html=1;aspect=fixed;pointerEvents=0;fillColor=none;gradientColor=none;" parent="Uhjl_tTcvrPX5doU-7aw-1" vertex="1">
                    <mxGeometry x="535.5" y="410" width="10" height="10" as="geometry"/>
                </mxCell>
                <mxCell id="cgHieyDRWAgkGrHZ09FN-111" value="&lt;div&gt;5000&lt;/div&gt;" style="endArrow=none;html=1;exitX=1;exitY=0.5;exitDx=0;exitDy=0;entryX=1;entryY=0.5;entryDx=0;entryDy=0;entryPerimeter=0;startArrow=box;startFill=0;" parent="Uhjl_tTcvrPX5doU-7aw-1" source="cgHieyDRWAgkGrHZ09FN-63" target="cgHieyDRWAgkGrHZ09FN-112" edge="1">
                    <mxGeometry width="50" height="50" relative="1" as="geometry">
                        <mxPoint x="697.5" y="420" as="sourcePoint"/>
                        <mxPoint x="532.5" y="545" as="targetPoint"/>
                    </mxGeometry>
                </mxCell>
                <mxCell id="cgHieyDRWAgkGrHZ09FN-112" value="" style="shape=requiredInterface;html=1;verticalLabelPosition=bottom;rotation=-180;" parent="Uhjl_tTcvrPX5doU-7aw-1" vertex="1">
                    <mxGeometry x="757.5" y="405" width="10" height="20" as="geometry"/>
                </mxCell>
                <mxCell id="cgHieyDRWAgkGrHZ09FN-114" value="Use" style="endArrow=open;endSize=12;dashed=1;html=1;rounded=1;edgeStyle=orthogonalEdgeStyle;exitX=0;exitY=0.5;exitDx=0;exitDy=0;entryX=0;entryY=0.5;entryDx=0;entryDy=0;entryPerimeter=0;" parent="Uhjl_tTcvrPX5doU-7aw-1" source="cgHieyDRWAgkGrHZ09FN-110" target="cgHieyDRWAgkGrHZ09FN-21" edge="1">
                    <mxGeometry x="-0.2548" y="10" width="160" relative="1" as="geometry">
                        <mxPoint x="415" y="405" as="sourcePoint"/>
                        <mxPoint x="500" y="588" as="targetPoint"/>
                        <Array as="points">
                            <mxPoint x="490" y="415"/>
                            <mxPoint x="490" y="345"/>
                            <mxPoint x="360" y="345"/>
                            <mxPoint x="360" y="415"/>
                        </Array>
                        <mxPoint as="offset"/>
                    </mxGeometry>
                </mxCell>
                <mxCell id="cgHieyDRWAgkGrHZ09FN-117" value="" style="group" parent="Uhjl_tTcvrPX5doU-7aw-1" vertex="1" connectable="0">
                    <mxGeometry x="536" y="597" width="35" height="10" as="geometry"/>
                </mxCell>
                <mxCell id="cgHieyDRWAgkGrHZ09FN-116" value="" style="ellipse;whiteSpace=wrap;html=1;aspect=fixed;pointerEvents=0;fillColor=none;gradientColor=none;" parent="cgHieyDRWAgkGrHZ09FN-117" vertex="1">
                    <mxGeometry x="5" width="10" height="10" as="geometry"/>
                </mxCell>
                <mxCell id="cgHieyDRWAgkGrHZ09FN-115" value="" style="endArrow=box;html=1;targetPerimeterSpacing=0;strokeWidth=1;entryX=0;entryY=0.5;entryDx=0;entryDy=0;endFill=0;exitX=1;exitY=0.5;exitDx=0;exitDy=0;" parent="Uhjl_tTcvrPX5doU-7aw-1" source="cgHieyDRWAgkGrHZ09FN-116" target="cgHieyDRWAgkGrHZ09FN-66" edge="1">
                    <mxGeometry width="50" height="50" relative="1" as="geometry">
                        <mxPoint x="455" y="575" as="sourcePoint"/>
                        <mxPoint x="565" y="600" as="targetPoint"/>
                    </mxGeometry>
                </mxCell>
                <mxCell id="cgHieyDRWAgkGrHZ09FN-119" value="Use" style="endArrow=open;endSize=12;dashed=1;html=1;rounded=1;edgeStyle=orthogonalEdgeStyle;exitX=0;exitY=0.5;exitDx=0;exitDy=0;entryX=0;entryY=0.5;entryDx=0;entryDy=0;entryPerimeter=0;" parent="Uhjl_tTcvrPX5doU-7aw-1" source="cgHieyDRWAgkGrHZ09FN-116" target="cgHieyDRWAgkGrHZ09FN-112" edge="1">
                    <mxGeometry x="-0.145" y="14" width="160" relative="1" as="geometry">
                        <mxPoint x="545.5" y="425" as="sourcePoint"/>
                        <mxPoint x="295" y="425" as="targetPoint"/>
                        <Array as="points">
                            <mxPoint x="470" y="602"/>
                            <mxPoint x="470" y="365"/>
                            <mxPoint x="800" y="365"/>
                            <mxPoint x="800" y="415"/>
                        </Array>
                        <mxPoint x="-10" y="4" as="offset"/>
                    </mxGeometry>
                </mxCell>
                <mxCell id="cgHieyDRWAgkGrHZ09FN-23" value="&lt;div&gt;5000&lt;/div&gt;" style="endArrow=box;html=1;exitX=0;exitY=0.5;exitDx=0;exitDy=0;exitPerimeter=0;entryX=1;entryY=0.5;entryDx=0;entryDy=0;endFill=0;" parent="Uhjl_tTcvrPX5doU-7aw-1" source="cgHieyDRWAgkGrHZ09FN-21" target="cgHieyDRWAgkGrHZ09FN-3" edge="1">
                    <mxGeometry width="50" height="50" relative="1" as="geometry">
                        <mxPoint x="360" y="420" as="sourcePoint"/>
                        <mxPoint x="410" y="370" as="targetPoint"/>
                    </mxGeometry>
                </mxCell>
                <mxCell id="Sxah1bu2ukm-b7G7eMJ2-4" value="" style="shape=requiredInterface;html=1;verticalLabelPosition=bottom;rotation=90;" parent="Uhjl_tTcvrPX5doU-7aw-1" vertex="1">
                    <mxGeometry x="370" y="255" width="10" height="20" as="geometry"/>
                </mxCell>
                <mxCell id="Sxah1bu2ukm-b7G7eMJ2-5" value="" style="shape=requiredInterface;html=1;verticalLabelPosition=bottom;rotation=90;" parent="Uhjl_tTcvrPX5doU-7aw-1" vertex="1">
                    <mxGeometry x="410" y="255" width="10" height="20" as="geometry"/>
                </mxCell>
                <mxCell id="Sxah1bu2ukm-b7G7eMJ2-6" value="" style="shape=requiredInterface;html=1;verticalLabelPosition=bottom;rotation=90;" parent="Uhjl_tTcvrPX5doU-7aw-1" vertex="1">
                    <mxGeometry x="450" y="255" width="10" height="20" as="geometry"/>
                </mxCell>
                <mxCell id="Sxah1bu2ukm-b7G7eMJ2-7" value="" style="endArrow=none;html=1;sourcePerimeterSpacing=6;targetPerimeterSpacing=12;strokeWidth=1;entryX=1;entryY=0.5;entryDx=0;entryDy=0;entryPerimeter=0;edgeStyle=orthogonalEdgeStyle;" parent="Uhjl_tTcvrPX5doU-7aw-1" target="Sxah1bu2ukm-b7G7eMJ2-4" edge="1">
                    <mxGeometry width="50" height="50" relative="1" as="geometry">
                        <mxPoint x="350" y="415" as="sourcePoint"/>
                        <mxPoint x="670" y="435" as="targetPoint"/>
                        <Array as="points">
                            <mxPoint x="375" y="415"/>
                        </Array>
                    </mxGeometry>
                </mxCell>
                <mxCell id="Sxah1bu2ukm-b7G7eMJ2-8" value="" style="endArrow=none;html=1;sourcePerimeterSpacing=6;targetPerimeterSpacing=12;strokeWidth=1;entryX=1;entryY=0.5;entryDx=0;entryDy=0;entryPerimeter=0;exitX=1;exitY=0.392;exitDx=0;exitDy=0;exitPerimeter=0;edgeStyle=orthogonalEdgeStyle;" parent="Uhjl_tTcvrPX5doU-7aw-1" source="cgHieyDRWAgkGrHZ09FN-65" target="Sxah1bu2ukm-b7G7eMJ2-5" edge="1">
                    <mxGeometry width="50" height="50" relative="1" as="geometry">
                        <mxPoint x="790" y="605" as="sourcePoint"/>
                        <mxPoint x="660" y="455" as="targetPoint"/>
                        <Array as="points">
                            <mxPoint x="810" y="602"/>
                            <mxPoint x="810" y="295"/>
                            <mxPoint x="415" y="295"/>
                        </Array>
                    </mxGeometry>
                </mxCell>
                <mxCell id="Sxah1bu2ukm-b7G7eMJ2-9" value="" style="endArrow=none;html=1;sourcePerimeterSpacing=6;targetPerimeterSpacing=12;strokeWidth=1;entryX=1;entryY=0.5;entryDx=0;entryDy=0;entryPerimeter=0;exitX=1;exitY=0.572;exitDx=0;exitDy=0;exitPerimeter=0;edgeStyle=orthogonalEdgeStyle;" parent="Uhjl_tTcvrPX5doU-7aw-1" source="cgHieyDRWAgkGrHZ09FN-65" target="Sxah1bu2ukm-b7G7eMJ2-6" edge="1">
                    <mxGeometry width="50" height="50" relative="1" as="geometry">
                        <mxPoint x="790" y="625" as="sourcePoint"/>
                        <mxPoint x="870" y="539" as="targetPoint"/>
                        <Array as="points">
                            <mxPoint x="820" y="624"/>
                            <mxPoint x="820" y="285"/>
                            <mxPoint x="455" y="285"/>
                        </Array>
                    </mxGeometry>
                </mxCell>
                <mxCell id="Sxah1bu2ukm-b7G7eMJ2-10" value="5000" style="endArrow=box;html=1;sourcePerimeterSpacing=6;targetPerimeterSpacing=12;strokeWidth=1;exitX=0;exitY=0.5;exitDx=0;exitDy=0;exitPerimeter=0;endFill=0;entryX=0.44;entryY=0;entryDx=0;entryDy=0;entryPerimeter=0;" parent="Uhjl_tTcvrPX5doU-7aw-1" source="Sxah1bu2ukm-b7G7eMJ2-4" target="cgHieyDRWAgkGrHZ09FN-108" edge="1">
                    <mxGeometry width="50" height="50" relative="1" as="geometry">
                        <mxPoint x="910" y="500" as="sourcePoint"/>
                        <mxPoint x="375" y="195" as="targetPoint"/>
                    </mxGeometry>
                </mxCell>
                <mxCell id="Sxah1bu2ukm-b7G7eMJ2-11" value="443" style="endArrow=box;html=1;sourcePerimeterSpacing=6;targetPerimeterSpacing=12;strokeWidth=1;exitX=0;exitY=0.5;exitDx=0;exitDy=0;exitPerimeter=0;endFill=0;entryX=0.488;entryY=0;entryDx=0;entryDy=0;entryPerimeter=0;" parent="Uhjl_tTcvrPX5doU-7aw-1" source="Sxah1bu2ukm-b7G7eMJ2-5" target="cgHieyDRWAgkGrHZ09FN-108" edge="1">
                    <mxGeometry width="50" height="50" relative="1" as="geometry">
                        <mxPoint x="880" y="504" as="sourcePoint"/>
                        <mxPoint x="416" y="185" as="targetPoint"/>
                    </mxGeometry>
                </mxCell>
                <mxCell id="Sxah1bu2ukm-b7G7eMJ2-12" value="80" style="endArrow=box;html=1;sourcePerimeterSpacing=6;targetPerimeterSpacing=12;strokeWidth=1;exitX=0;exitY=0.5;exitDx=0;exitDy=0;exitPerimeter=0;entryX=0.536;entryY=0;entryDx=0;entryDy=0;entryPerimeter=0;endFill=0;" parent="Uhjl_tTcvrPX5doU-7aw-1" source="Sxah1bu2ukm-b7G7eMJ2-6" target="cgHieyDRWAgkGrHZ09FN-108" edge="1">
                    <mxGeometry width="50" height="50" relative="1" as="geometry">
                        <mxPoint x="880" y="535" as="sourcePoint"/>
                        <mxPoint x="940" y="534.75" as="targetPoint"/>
                    </mxGeometry>
                </mxCell>
                <mxCell id="Sxah1bu2ukm-b7G7eMJ2-13" value="&lt;div&gt;User&lt;/div&gt;" style="shape=umlActor;verticalLabelPosition=bottom;verticalAlign=top;html=1;pointerEvents=0;fillColor=none;gradientColor=none;" parent="Uhjl_tTcvrPX5doU-7aw-1" vertex="1">
                    <mxGeometry x="640" y="30" width="30" height="60" as="geometry"/>
                </mxCell>
                <mxCell id="Sxah1bu2ukm-b7G7eMJ2-14" value="Automated&#10;service&#10;" style="shape=module;align=left;spacingLeft=20;align=center;verticalAlign=top;pointerEvents=0;fillColor=none;gradientColor=none;" parent="Uhjl_tTcvrPX5doU-7aw-1" vertex="1">
                    <mxGeometry x="100" y="40" width="100" height="50" as="geometry"/>
                </mxCell>
                <mxCell id="Sxah1bu2ukm-b7G7eMJ2-17" value="" style="endArrow=none;html=1;targetPerimeterSpacing=0;strokeWidth=1;entryX=0.474;entryY=1;entryDx=0;entryDy=0;endFill=0;exitX=0.5;exitY=0;exitDx=0;exitDy=0;entryPerimeter=0;" parent="Uhjl_tTcvrPX5doU-7aw-1" source="Sxah1bu2ukm-b7G7eMJ2-18" target="Sxah1bu2ukm-b7G7eMJ2-1" edge="1">
                    <mxGeometry width="50" height="50" relative="1" as="geometry">
                        <mxPoint x="292" y="140" as="sourcePoint"/>
                        <mxPoint x="402" y="165" as="targetPoint"/>
                    </mxGeometry>
                </mxCell>
                <mxCell id="Sxah1bu2ukm-b7G7eMJ2-18" value="" style="ellipse;whiteSpace=wrap;html=1;aspect=fixed;pointerEvents=0;fillColor=none;gradientColor=none;" parent="Uhjl_tTcvrPX5doU-7aw-1" vertex="1">
                    <mxGeometry x="370" y="140" width="10" height="10" as="geometry"/>
                </mxCell>
                <mxCell id="Sxah1bu2ukm-b7G7eMJ2-19" value="" style="endArrow=none;html=1;targetPerimeterSpacing=0;strokeWidth=1;entryX=0.526;entryY=1;entryDx=0;entryDy=0;endFill=0;exitX=0.5;exitY=0;exitDx=0;exitDy=0;entryPerimeter=0;" parent="Uhjl_tTcvrPX5doU-7aw-1" source="Sxah1bu2ukm-b7G7eMJ2-20" target="Sxah1bu2ukm-b7G7eMJ2-1" edge="1">
                    <mxGeometry width="50" height="50" relative="1" as="geometry">
                        <mxPoint x="332" y="150" as="sourcePoint"/>
                        <mxPoint x="442" y="175" as="targetPoint"/>
                    </mxGeometry>
                </mxCell>
                <mxCell id="Sxah1bu2ukm-b7G7eMJ2-20" value="" style="ellipse;whiteSpace=wrap;html=1;aspect=fixed;pointerEvents=0;fillColor=none;gradientColor=none;" parent="Uhjl_tTcvrPX5doU-7aw-1" vertex="1">
                    <mxGeometry x="410" y="140" width="10" height="10" as="geometry"/>
                </mxCell>
                <mxCell id="2" style="edgeStyle=orthogonalEdgeStyle;rounded=0;orthogonalLoop=1;jettySize=auto;html=1;entryX=0.441;entryY=0;entryDx=0;entryDy=0;entryPerimeter=0;endArrow=none;endFill=0;" parent="Uhjl_tTcvrPX5doU-7aw-1" source="Sxah1bu2ukm-b7G7eMJ2-23" target="cgHieyDRWAgkGrHZ09FN-108" edge="1">
                    <mxGeometry relative="1" as="geometry"/>
                </mxCell>
                <mxCell id="Sxah1bu2ukm-b7G7eMJ2-23" value="" style="shape=requiredInterface;html=1;verticalLabelPosition=bottom;rotation=90;" parent="Uhjl_tTcvrPX5doU-7aw-1" vertex="1">
                    <mxGeometry x="370" y="190" width="10" height="20" as="geometry"/>
                </mxCell>
                <mxCell id="3" style="edgeStyle=orthogonalEdgeStyle;rounded=0;orthogonalLoop=1;jettySize=auto;html=1;entryX=0.488;entryY=0;entryDx=0;entryDy=0;entryPerimeter=0;endArrow=none;endFill=0;" parent="Uhjl_tTcvrPX5doU-7aw-1" source="Sxah1bu2ukm-b7G7eMJ2-30" target="cgHieyDRWAgkGrHZ09FN-108" edge="1">
                    <mxGeometry relative="1" as="geometry"/>
                </mxCell>
                <mxCell id="Sxah1bu2ukm-b7G7eMJ2-30" value="" style="shape=requiredInterface;html=1;verticalLabelPosition=bottom;rotation=90;" parent="Uhjl_tTcvrPX5doU-7aw-1" vertex="1">
                    <mxGeometry x="410" y="190" width="10" height="20" as="geometry"/>
                </mxCell>
                <mxCell id="4" style="edgeStyle=orthogonalEdgeStyle;rounded=0;orthogonalLoop=1;jettySize=auto;html=1;entryX=0.536;entryY=0;entryDx=0;entryDy=0;entryPerimeter=0;endArrow=none;endFill=0;" parent="Uhjl_tTcvrPX5doU-7aw-1" source="Sxah1bu2ukm-b7G7eMJ2-32" target="cgHieyDRWAgkGrHZ09FN-108" edge="1">
                    <mxGeometry relative="1" as="geometry"/>
                </mxCell>
                <mxCell id="Sxah1bu2ukm-b7G7eMJ2-32" value="" style="shape=requiredInterface;html=1;verticalLabelPosition=bottom;rotation=90;" parent="Uhjl_tTcvrPX5doU-7aw-1" vertex="1">
                    <mxGeometry x="450" y="190" width="10" height="20" as="geometry"/>
                </mxCell>
                <mxCell id="Sxah1bu2ukm-b7G7eMJ2-34" value="Use" style="endArrow=open;endSize=12;dashed=1;html=1;sourcePerimeterSpacing=6;targetPerimeterSpacing=12;strokeWidth=1;exitX=0.5;exitY=1;exitDx=0;exitDy=0;entryX=0;entryY=0.5;entryDx=0;entryDy=0;entryPerimeter=0;" parent="Uhjl_tTcvrPX5doU-7aw-1" source="Sxah1bu2ukm-b7G7eMJ2-18" target="Sxah1bu2ukm-b7G7eMJ2-23" edge="1">
                    <mxGeometry width="160" relative="1" as="geometry">
                        <mxPoint x="840" y="500" as="sourcePoint"/>
                        <mxPoint x="1000" y="500" as="targetPoint"/>
                    </mxGeometry>
                </mxCell>
                <mxCell id="Sxah1bu2ukm-b7G7eMJ2-35" value="Use" style="endArrow=open;endSize=12;dashed=1;html=1;sourcePerimeterSpacing=6;targetPerimeterSpacing=12;strokeWidth=1;exitX=0.5;exitY=1;exitDx=0;exitDy=0;entryX=0;entryY=0.5;entryDx=0;entryDy=0;entryPerimeter=0;" parent="Uhjl_tTcvrPX5doU-7aw-1" source="Sxah1bu2ukm-b7G7eMJ2-20" target="Sxah1bu2ukm-b7G7eMJ2-30" edge="1">
                    <mxGeometry width="160" relative="1" as="geometry">
                        <mxPoint x="1048" y="470" as="sourcePoint"/>
                        <mxPoint x="990" y="470" as="targetPoint"/>
                    </mxGeometry>
                </mxCell>
                <mxCell id="Sxah1bu2ukm-b7G7eMJ2-37" value="" style="endArrow=box;html=1;targetPerimeterSpacing=0;strokeWidth=1;endFill=0;exitX=0.474;exitY=1;exitDx=0;exitDy=0;startArrow=box;startFill=0;edgeStyle=orthogonalEdgeStyle;exitPerimeter=0;entryX=1;entryY=0.5;entryDx=0;entryDy=0;" parent="Uhjl_tTcvrPX5doU-7aw-1" source="Sxah1bu2ukm-b7G7eMJ2-1" target="Sxah1bu2ukm-b7G7eMJ2-14" edge="1">
                    <mxGeometry width="50" height="50" relative="1" as="geometry">
                        <mxPoint x="285" y="-30" as="sourcePoint"/>
                        <mxPoint x="315" y="-30" as="targetPoint"/>
                        <Array as="points">
                            <mxPoint x="375" y="65"/>
                        </Array>
                    </mxGeometry>
                </mxCell>
                <mxCell id="Sxah1bu2ukm-b7G7eMJ2-38" value="" style="endArrow=box;html=1;targetPerimeterSpacing=0;strokeWidth=1;endFill=0;startArrow=box;startFill=0;edgeStyle=orthogonalEdgeStyle;exitX=0.526;exitY=1;exitDx=0;exitDy=0;exitPerimeter=0;" parent="Uhjl_tTcvrPX5doU-7aw-1" source="Sxah1bu2ukm-b7G7eMJ2-1" target="Sxah1bu2ukm-b7G7eMJ2-13" edge="1">
                    <mxGeometry width="50" height="50" relative="1" as="geometry">
                        <mxPoint x="285" as="sourcePoint"/>
                        <mxPoint x="315" as="targetPoint"/>
                        <Array as="points">
                            <mxPoint x="415" y="70"/>
                        </Array>
                    </mxGeometry>
                </mxCell>
            </root>
        </mxGraphModel>
    </diagram>
</mxfile>